<mxfile host="Electron" agent="Mozilla/5.0 (Windows NT 10.0; Win64; x64) AppleWebKit/537.36 (KHTML, like Gecko) draw.io/25.0.2 Chrome/128.0.6613.186 Electron/32.2.5 Safari/537.36" version="25.0.2">
  <diagram name="第 1 页" id="ZHwEGVbYEzqRxgIG-qVi">
    <mxGraphModel dx="1036" dy="609" grid="1" gridSize="10" guides="1" tooltips="1" connect="1" arrows="1" fold="1" page="1" pageScale="1" pageWidth="827" pageHeight="1169" math="1" shadow="0">
      <root>
        <mxCell id="0" />
        <mxCell id="1" parent="0" />
        <mxCell id="ldRNPAbvJktoTfLLqjjc-7" style="rounded=0;orthogonalLoop=1;jettySize=auto;html=1;strokeWidth=2;fontFamily=Times New Roman;fontSize=18;" parent="1" source="ldRNPAbvJktoTfLLqjjc-1" target="ldRNPAbvJktoTfLLqjjc-4" edge="1">
          <mxGeometry relative="1" as="geometry" />
        </mxCell>
        <mxCell id="ldRNPAbvJktoTfLLqjjc-1" value="A" style="ellipse;whiteSpace=wrap;html=1;aspect=fixed;strokeWidth=2;fontFamily=Times New Roman;fontSize=18;" parent="1" vertex="1">
          <mxGeometry x="170" y="130" width="40" height="40" as="geometry" />
        </mxCell>
        <mxCell id="ldRNPAbvJktoTfLLqjjc-2" value="C" style="ellipse;whiteSpace=wrap;html=1;aspect=fixed;strokeWidth=2;fontFamily=Times New Roman;fontSize=18;" parent="1" vertex="1">
          <mxGeometry x="220" y="190" width="40" height="40" as="geometry" />
        </mxCell>
        <mxCell id="ldRNPAbvJktoTfLLqjjc-25" value="" style="edgeStyle=orthogonalEdgeStyle;rounded=0;orthogonalLoop=1;jettySize=auto;html=1;strokeWidth=2;fontFamily=Times New Roman;fontSize=18;" parent="1" source="ldRNPAbvJktoTfLLqjjc-4" target="ldRNPAbvJktoTfLLqjjc-9" edge="1">
          <mxGeometry relative="1" as="geometry" />
        </mxCell>
        <mxCell id="ldRNPAbvJktoTfLLqjjc-4" value="B" style="ellipse;whiteSpace=wrap;html=1;aspect=fixed;strokeWidth=2;fontFamily=Times New Roman;fontSize=18;" parent="1" vertex="1">
          <mxGeometry x="120" y="190" width="40" height="40" as="geometry" />
        </mxCell>
        <mxCell id="ldRNPAbvJktoTfLLqjjc-9" value="D" style="ellipse;whiteSpace=wrap;html=1;aspect=fixed;strokeWidth=2;fontFamily=Times New Roman;fontSize=18;" parent="1" vertex="1">
          <mxGeometry x="120" y="270" width="40" height="40" as="geometry" />
        </mxCell>
        <mxCell id="ldRNPAbvJktoTfLLqjjc-10" value="E" style="ellipse;whiteSpace=wrap;html=1;aspect=fixed;strokeWidth=2;fontFamily=Times New Roman;fontSize=18;" parent="1" vertex="1">
          <mxGeometry x="220" y="270" width="40" height="40" as="geometry" />
        </mxCell>
        <mxCell id="ldRNPAbvJktoTfLLqjjc-17" style="rounded=0;orthogonalLoop=1;jettySize=auto;html=1;strokeWidth=2;fontFamily=Times New Roman;fontSize=18;" parent="1" source="ldRNPAbvJktoTfLLqjjc-18" target="ldRNPAbvJktoTfLLqjjc-21" edge="1">
          <mxGeometry relative="1" as="geometry" />
        </mxCell>
        <mxCell id="ldRNPAbvJktoTfLLqjjc-18" value="A" style="ellipse;whiteSpace=wrap;html=1;aspect=fixed;strokeWidth=2;fontFamily=Times New Roman;fontSize=18;" parent="1" vertex="1">
          <mxGeometry x="440" y="130" width="40" height="40" as="geometry" />
        </mxCell>
        <mxCell id="ldRNPAbvJktoTfLLqjjc-19" value="" style="edgeStyle=orthogonalEdgeStyle;rounded=0;orthogonalLoop=1;jettySize=auto;html=1;strokeWidth=2;dashed=1;fontFamily=Times New Roman;fontSize=18;" parent="1" source="ldRNPAbvJktoTfLLqjjc-20" target="ldRNPAbvJktoTfLLqjjc-23" edge="1">
          <mxGeometry relative="1" as="geometry" />
        </mxCell>
        <mxCell id="ldRNPAbvJktoTfLLqjjc-20" value="C" style="ellipse;whiteSpace=wrap;html=1;aspect=fixed;strokeWidth=2;fontFamily=Times New Roman;fontSize=18;" parent="1" vertex="1">
          <mxGeometry x="490" y="190" width="40" height="40" as="geometry" />
        </mxCell>
        <mxCell id="ldRNPAbvJktoTfLLqjjc-26" value="" style="edgeStyle=orthogonalEdgeStyle;rounded=0;orthogonalLoop=1;jettySize=auto;html=1;strokeWidth=2;fontFamily=Times New Roman;fontSize=18;" parent="1" source="ldRNPAbvJktoTfLLqjjc-21" target="ldRNPAbvJktoTfLLqjjc-22" edge="1">
          <mxGeometry relative="1" as="geometry" />
        </mxCell>
        <mxCell id="ldRNPAbvJktoTfLLqjjc-21" value="B" style="ellipse;whiteSpace=wrap;html=1;aspect=fixed;strokeWidth=2;fontFamily=Times New Roman;fontSize=18;" parent="1" vertex="1">
          <mxGeometry x="390" y="190" width="40" height="40" as="geometry" />
        </mxCell>
        <mxCell id="ldRNPAbvJktoTfLLqjjc-22" value="D" style="ellipse;whiteSpace=wrap;html=1;aspect=fixed;strokeWidth=2;fontFamily=Times New Roman;fontSize=18;" parent="1" vertex="1">
          <mxGeometry x="390" y="270" width="40" height="40" as="geometry" />
        </mxCell>
        <mxCell id="ldRNPAbvJktoTfLLqjjc-23" value="E" style="ellipse;whiteSpace=wrap;html=1;aspect=fixed;strokeWidth=2;fontFamily=Times New Roman;fontSize=18;" parent="1" vertex="1">
          <mxGeometry x="490" y="270" width="40" height="40" as="geometry" />
        </mxCell>
        <mxCell id="ldRNPAbvJktoTfLLqjjc-24" value="" style="endArrow=classic;html=1;rounded=0;dashed=1;strokeWidth=2;fontFamily=Times New Roman;fontSize=18;" parent="1" source="ldRNPAbvJktoTfLLqjjc-21" target="ldRNPAbvJktoTfLLqjjc-23" edge="1">
          <mxGeometry width="50" height="50" relative="1" as="geometry">
            <mxPoint x="560" y="390" as="sourcePoint" />
            <mxPoint x="610" y="340" as="targetPoint" />
          </mxGeometry>
        </mxCell>
        <mxCell id="ldRNPAbvJktoTfLLqjjc-27" value="" style="shape=flexArrow;endArrow=classic;html=1;rounded=0;fillColor=#dae8fc;strokeColor=#6c8ebf;fontFamily=Times New Roman;fontSize=18;" parent="1" edge="1">
          <mxGeometry width="50" height="50" relative="1" as="geometry">
            <mxPoint x="290" y="220" as="sourcePoint" />
            <mxPoint x="370" y="220" as="targetPoint" />
          </mxGeometry>
        </mxCell>
        <mxCell id="ldRNPAbvJktoTfLLqjjc-28" style="rounded=0;orthogonalLoop=1;jettySize=auto;html=1;strokeWidth=2;endArrow=none;endFill=0;startArrow=classic;startFill=1;fontFamily=Times New Roman;fontSize=18;" parent="1" source="ldRNPAbvJktoTfLLqjjc-29" target="ldRNPAbvJktoTfLLqjjc-33" edge="1">
          <mxGeometry relative="1" as="geometry" />
        </mxCell>
        <mxCell id="ldRNPAbvJktoTfLLqjjc-29" value="A" style="ellipse;whiteSpace=wrap;html=1;aspect=fixed;strokeWidth=2;fontFamily=Times New Roman;fontSize=18;" parent="1" vertex="1">
          <mxGeometry x="737" y="240" width="40" height="40" as="geometry" />
        </mxCell>
        <mxCell id="ldRNPAbvJktoTfLLqjjc-30" value="" style="edgeStyle=orthogonalEdgeStyle;rounded=0;orthogonalLoop=1;jettySize=auto;html=1;strokeWidth=2;dashed=1;startArrow=classic;startFill=1;endArrow=none;endFill=0;fontFamily=Times New Roman;fontSize=18;" parent="1" source="ldRNPAbvJktoTfLLqjjc-31" target="ldRNPAbvJktoTfLLqjjc-35" edge="1">
          <mxGeometry relative="1" as="geometry" />
        </mxCell>
        <mxCell id="ldRNPAbvJktoTfLLqjjc-31" value="C" style="ellipse;whiteSpace=wrap;html=1;aspect=fixed;strokeWidth=2;fontFamily=Times New Roman;fontSize=18;" parent="1" vertex="1">
          <mxGeometry x="787" y="300" width="40" height="40" as="geometry" />
        </mxCell>
        <mxCell id="ldRNPAbvJktoTfLLqjjc-32" value="" style="edgeStyle=orthogonalEdgeStyle;rounded=0;orthogonalLoop=1;jettySize=auto;html=1;strokeWidth=2;startArrow=classic;startFill=1;endArrow=none;endFill=0;fontFamily=Times New Roman;fontSize=18;" parent="1" source="ldRNPAbvJktoTfLLqjjc-33" target="ldRNPAbvJktoTfLLqjjc-34" edge="1">
          <mxGeometry relative="1" as="geometry" />
        </mxCell>
        <mxCell id="ldRNPAbvJktoTfLLqjjc-33" value="B" style="ellipse;whiteSpace=wrap;html=1;aspect=fixed;strokeWidth=2;fontFamily=Times New Roman;fontSize=18;" parent="1" vertex="1">
          <mxGeometry x="687" y="300" width="40" height="40" as="geometry" />
        </mxCell>
        <mxCell id="ldRNPAbvJktoTfLLqjjc-34" value="D" style="ellipse;whiteSpace=wrap;html=1;aspect=fixed;strokeWidth=2;fontFamily=Times New Roman;fontSize=18;" parent="1" vertex="1">
          <mxGeometry x="687" y="380" width="40" height="40" as="geometry" />
        </mxCell>
        <mxCell id="ldRNPAbvJktoTfLLqjjc-35" value="E" style="ellipse;whiteSpace=wrap;html=1;aspect=fixed;strokeWidth=2;fontFamily=Times New Roman;fontSize=18;" parent="1" vertex="1">
          <mxGeometry x="787" y="380" width="40" height="40" as="geometry" />
        </mxCell>
        <mxCell id="ldRNPAbvJktoTfLLqjjc-36" value="" style="endArrow=none;html=1;rounded=0;dashed=1;strokeWidth=2;startArrow=classic;startFill=1;endFill=0;fontFamily=Times New Roman;fontSize=18;" parent="1" source="ldRNPAbvJktoTfLLqjjc-33" target="ldRNPAbvJktoTfLLqjjc-35" edge="1">
          <mxGeometry width="50" height="50" relative="1" as="geometry">
            <mxPoint x="857" y="500" as="sourcePoint" />
            <mxPoint x="907" y="450" as="targetPoint" />
          </mxGeometry>
        </mxCell>
        <mxCell id="ldRNPAbvJktoTfLLqjjc-38" value="" style="shape=flexArrow;endArrow=classic;html=1;rounded=0;fillColor=#d5e8d4;strokeColor=#82b366;fontFamily=Times New Roman;fontSize=18;" parent="1" edge="1">
          <mxGeometry width="50" height="50" relative="1" as="geometry">
            <mxPoint x="560" y="260" as="sourcePoint" />
            <mxPoint x="640" y="310" as="targetPoint" />
          </mxGeometry>
        </mxCell>
        <mxCell id="ldRNPAbvJktoTfLLqjjc-39" style="rounded=0;orthogonalLoop=1;jettySize=auto;html=1;strokeWidth=2;endArrow=none;endFill=0;startArrow=classic;startFill=1;fontFamily=Times New Roman;fontSize=18;" parent="1" source="ldRNPAbvJktoTfLLqjjc-40" target="ldRNPAbvJktoTfLLqjjc-44" edge="1">
          <mxGeometry relative="1" as="geometry" />
        </mxCell>
        <mxCell id="ldRNPAbvJktoTfLLqjjc-40" value="A" style="ellipse;whiteSpace=wrap;html=1;aspect=fixed;strokeWidth=2;fontFamily=Times New Roman;fontSize=18;" parent="1" vertex="1">
          <mxGeometry x="440" y="340" width="40" height="40" as="geometry" />
        </mxCell>
        <mxCell id="ldRNPAbvJktoTfLLqjjc-41" value="" style="edgeStyle=orthogonalEdgeStyle;rounded=0;orthogonalLoop=1;jettySize=auto;html=1;strokeWidth=2;dashed=1;startArrow=classic;startFill=1;endArrow=none;endFill=0;fontFamily=Times New Roman;fontSize=18;" parent="1" source="ldRNPAbvJktoTfLLqjjc-42" target="ldRNPAbvJktoTfLLqjjc-46" edge="1">
          <mxGeometry relative="1" as="geometry" />
        </mxCell>
        <mxCell id="ldRNPAbvJktoTfLLqjjc-42" value="C" style="ellipse;whiteSpace=wrap;html=1;aspect=fixed;strokeWidth=2;fontFamily=Times New Roman;fontSize=18;" parent="1" vertex="1">
          <mxGeometry x="490" y="400" width="40" height="40" as="geometry" />
        </mxCell>
        <mxCell id="ldRNPAbvJktoTfLLqjjc-43" value="" style="edgeStyle=orthogonalEdgeStyle;rounded=0;orthogonalLoop=1;jettySize=auto;html=1;strokeWidth=2;startArrow=classic;startFill=1;endArrow=none;endFill=0;fontFamily=Times New Roman;fontSize=18;" parent="1" source="ldRNPAbvJktoTfLLqjjc-44" target="ldRNPAbvJktoTfLLqjjc-45" edge="1">
          <mxGeometry relative="1" as="geometry" />
        </mxCell>
        <mxCell id="ldRNPAbvJktoTfLLqjjc-44" value="B" style="ellipse;whiteSpace=wrap;html=1;aspect=fixed;strokeWidth=2;fontFamily=Times New Roman;fontSize=18;" parent="1" vertex="1">
          <mxGeometry x="390" y="400" width="40" height="40" as="geometry" />
        </mxCell>
        <mxCell id="ldRNPAbvJktoTfLLqjjc-45" value="D" style="ellipse;whiteSpace=wrap;html=1;aspect=fixed;strokeWidth=2;fontFamily=Times New Roman;fontSize=18;" parent="1" vertex="1">
          <mxGeometry x="390" y="480" width="40" height="40" as="geometry" />
        </mxCell>
        <mxCell id="ldRNPAbvJktoTfLLqjjc-46" value="E" style="ellipse;whiteSpace=wrap;html=1;aspect=fixed;strokeWidth=2;fillColor=#ffe6cc;strokeColor=#d79b00;fontFamily=Times New Roman;fontSize=18;" parent="1" vertex="1">
          <mxGeometry x="490" y="480" width="40" height="40" as="geometry" />
        </mxCell>
        <mxCell id="ldRNPAbvJktoTfLLqjjc-47" value="" style="endArrow=none;html=1;rounded=0;dashed=1;strokeWidth=2;startArrow=classic;startFill=1;endFill=0;fontFamily=Times New Roman;fontSize=18;" parent="1" source="ldRNPAbvJktoTfLLqjjc-44" target="ldRNPAbvJktoTfLLqjjc-46" edge="1">
          <mxGeometry width="50" height="50" relative="1" as="geometry">
            <mxPoint x="560" y="600" as="sourcePoint" />
            <mxPoint x="610" y="550" as="targetPoint" />
          </mxGeometry>
        </mxCell>
        <mxCell id="ldRNPAbvJktoTfLLqjjc-50" value="$$\langle l_E, s_E \rangle$$" style="text;html=1;align=center;verticalAlign=middle;whiteSpace=wrap;rounded=0;fontFamily=Times New Roman;fontSize=14;" parent="1" vertex="1">
          <mxGeometry x="530" y="485" width="60" height="30" as="geometry" />
        </mxCell>
        <mxCell id="ldRNPAbvJktoTfLLqjjc-51" value="" style="shape=flexArrow;endArrow=classic;html=1;rounded=0;fillColor=#ffe6cc;strokeColor=#d79b00;fontFamily=Times New Roman;fontSize=18;" parent="1" edge="1">
          <mxGeometry width="50" height="50" relative="1" as="geometry">
            <mxPoint x="640" y="370" as="sourcePoint" />
            <mxPoint x="550" y="420" as="targetPoint" />
          </mxGeometry>
        </mxCell>
        <mxCell id="ldRNPAbvJktoTfLLqjjc-52" style="rounded=0;orthogonalLoop=1;jettySize=auto;html=1;strokeWidth=2;endArrow=none;endFill=0;startArrow=classic;startFill=1;fontFamily=Times New Roman;fontSize=18;" parent="1" source="ldRNPAbvJktoTfLLqjjc-53" target="ldRNPAbvJktoTfLLqjjc-57" edge="1">
          <mxGeometry relative="1" as="geometry" />
        </mxCell>
        <mxCell id="ldRNPAbvJktoTfLLqjjc-53" value="A" style="ellipse;whiteSpace=wrap;html=1;aspect=fixed;strokeWidth=2;fontFamily=Times New Roman;fontSize=18;" parent="1" vertex="1">
          <mxGeometry x="170" y="340" width="40" height="40" as="geometry" />
        </mxCell>
        <mxCell id="ldRNPAbvJktoTfLLqjjc-54" value="" style="edgeStyle=orthogonalEdgeStyle;rounded=0;orthogonalLoop=1;jettySize=auto;html=1;strokeWidth=2;dashed=1;startArrow=classic;startFill=1;endArrow=none;endFill=0;fillColor=#f5f5f5;strokeColor=#666666;fontFamily=Times New Roman;fontSize=18;" parent="1" source="ldRNPAbvJktoTfLLqjjc-55" target="ldRNPAbvJktoTfLLqjjc-59" edge="1">
          <mxGeometry relative="1" as="geometry" />
        </mxCell>
        <mxCell id="ldRNPAbvJktoTfLLqjjc-55" value="C" style="ellipse;whiteSpace=wrap;html=1;aspect=fixed;strokeWidth=2;fillColor=#ffe6cc;strokeColor=#d79b00;fontFamily=Times New Roman;fontSize=18;" parent="1" vertex="1">
          <mxGeometry x="220" y="400" width="40" height="40" as="geometry" />
        </mxCell>
        <mxCell id="ldRNPAbvJktoTfLLqjjc-56" value="" style="edgeStyle=orthogonalEdgeStyle;rounded=0;orthogonalLoop=1;jettySize=auto;html=1;strokeWidth=2;startArrow=classic;startFill=1;endArrow=none;endFill=0;fontFamily=Times New Roman;fontSize=18;" parent="1" source="ldRNPAbvJktoTfLLqjjc-57" target="ldRNPAbvJktoTfLLqjjc-58" edge="1">
          <mxGeometry relative="1" as="geometry" />
        </mxCell>
        <mxCell id="ldRNPAbvJktoTfLLqjjc-57" value="B" style="ellipse;whiteSpace=wrap;html=1;aspect=fixed;strokeWidth=2;fontFamily=Times New Roman;fontSize=18;" parent="1" vertex="1">
          <mxGeometry x="120" y="400" width="40" height="40" as="geometry" />
        </mxCell>
        <mxCell id="ldRNPAbvJktoTfLLqjjc-58" value="D" style="ellipse;whiteSpace=wrap;html=1;aspect=fixed;strokeWidth=2;fontFamily=Times New Roman;fontSize=18;" parent="1" vertex="1">
          <mxGeometry x="120" y="480" width="40" height="40" as="geometry" />
        </mxCell>
        <mxCell id="ldRNPAbvJktoTfLLqjjc-59" value="E" style="ellipse;whiteSpace=wrap;html=1;aspect=fixed;strokeWidth=2;fillColor=#f5f5f5;strokeColor=#666666;fontColor=#333333;fontFamily=Times New Roman;fontSize=18;" parent="1" vertex="1">
          <mxGeometry x="220" y="480" width="40" height="40" as="geometry" />
        </mxCell>
        <mxCell id="ldRNPAbvJktoTfLLqjjc-60" value="" style="endArrow=none;html=1;rounded=0;dashed=1;strokeWidth=2;startArrow=classic;startFill=1;endFill=0;fillColor=#f5f5f5;strokeColor=#666666;fontFamily=Times New Roman;fontSize=18;" parent="1" source="ldRNPAbvJktoTfLLqjjc-57" target="ldRNPAbvJktoTfLLqjjc-59" edge="1">
          <mxGeometry width="50" height="50" relative="1" as="geometry">
            <mxPoint x="290" y="600" as="sourcePoint" />
            <mxPoint x="340" y="550" as="targetPoint" />
          </mxGeometry>
        </mxCell>
        <mxCell id="ldRNPAbvJktoTfLLqjjc-61" value="$$\langle l_E, s_E \rangle$$" style="text;html=1;align=center;verticalAlign=middle;whiteSpace=wrap;rounded=0;fontFamily=Times New Roman;fontSize=14;" parent="1" vertex="1">
          <mxGeometry x="260" y="485" width="60" height="30" as="geometry" />
        </mxCell>
        <mxCell id="ldRNPAbvJktoTfLLqjjc-62" value="$$\langle l_C, s_C \rangle$$" style="text;html=1;align=center;verticalAlign=middle;whiteSpace=wrap;rounded=0;fontFamily=Times New Roman;fontSize=14;" parent="1" vertex="1">
          <mxGeometry x="220" y="370" width="60" height="30" as="geometry" />
        </mxCell>
        <mxCell id="ldRNPAbvJktoTfLLqjjc-63" value="" style="shape=flexArrow;endArrow=classic;html=1;rounded=0;fillColor=#ffe6cc;strokeColor=#d79b00;fontFamily=Times New Roman;fontSize=18;" parent="1" edge="1">
          <mxGeometry width="50" height="50" relative="1" as="geometry">
            <mxPoint x="360" y="430" as="sourcePoint" />
            <mxPoint x="280" y="430" as="targetPoint" />
          </mxGeometry>
        </mxCell>
        <mxCell id="r8UY4BOL4saz2oLkB3Dk-1" value="SR" style="text;html=1;align=center;verticalAlign=middle;whiteSpace=wrap;rounded=0;fontFamily=Times New Roman;fontSize=18;" vertex="1" parent="1">
          <mxGeometry x="550" y="360" width="60" height="30" as="geometry" />
        </mxCell>
        <mxCell id="r8UY4BOL4saz2oLkB3Dk-2" value="SR" style="text;html=1;align=center;verticalAlign=middle;whiteSpace=wrap;rounded=0;fontFamily=Times New Roman;fontSize=18;" vertex="1" parent="1">
          <mxGeometry x="300" y="385" width="60" height="30" as="geometry" />
        </mxCell>
      </root>
    </mxGraphModel>
  </diagram>
</mxfile>
